<svg width="205" height="62" viewBox="0 0 205 62" fill="none" xmlns="http://www.w3.org/2000/svg">
<g id="Apple-Store_Primary-Mobile-App-Buttons_S_Illustration 1" clip-path="url(#clip0_1_530)">
<g id="Clip path group">
<mask id="mask0_1_530" style="mask-type:luminance" maskUnits="userSpaceOnUse" x="0" y="0" width="205" height="62">
<g id="clip0_13117_142770">
<path id="Vector" d="M205 0.756104H0V61.2439H205V0.756104Z" fill="white"/>
</g>
</mask>
<g mask="url(#mask0_1_530)">
<g id="Group">
<path id="Vector_2" d="M188.674 0.7563H16.3341C15.7059 0.7563 15.0853 0.7563 14.4587 0.759324C13.9342 0.762349 13.414 0.771135 12.8844 0.778529C11.7341 0.790479 10.5865 0.87981 9.4515 1.04575C8.31814 1.2153 7.22028 1.53496 6.19505 1.9939C5.17107 2.45672 4.23545 3.05812 3.42209 3.77626C2.60447 4.49239 1.92293 5.32014 1.40365 6.22766C0.882947 7.13339 0.521889 8.10397 0.332947 9.10585C0.142208 10.1065 0.0395705 11.1186 0.0259539 12.1333C0.0100561 12.5969 0.0083772 13.0621 0 13.5258V48.479C0.0083772 48.9486 0.0100561 49.4034 0.0259539 49.8731C0.0395747 50.8878 0.142213 51.8999 0.332947 52.9004C0.521367 53.903 0.882448 54.8741 1.40365 55.78C1.92269 56.6846 2.60434 57.5091 3.42209 58.2212C4.23237 58.9425 5.1686 59.5443 6.19505 60.0036C7.22027 60.4638 8.31802 60.7854 9.4515 60.9575C10.5867 61.1222 11.7342 61.2115 12.8844 61.2249C13.414 61.2351 13.9342 61.241 14.4587 61.241C15.0853 61.2441 15.706 61.2441 16.3341 61.2441H188.674C189.291 61.2441 189.917 61.2441 190.532 61.241C191.054 61.241 191.59 61.2351 192.111 61.2249C193.259 61.2123 194.405 61.1229 195.538 60.9575C196.675 60.7842 197.776 60.4627 198.806 60.0036C199.832 59.544 200.768 58.9423 201.577 58.2212C202.393 57.5064 203.076 56.6825 203.601 55.78C204.119 54.8733 204.476 53.9023 204.661 52.9004C204.853 51.8997 204.959 50.8878 204.98 49.8731C204.986 49.4034 204.986 48.9486 204.986 48.479C205 47.9296 205 47.3833 205 46.825V15.1768C205 14.623 205 14.0737 204.986 13.5258C204.986 13.0621 204.986 12.5969 204.98 12.1332C204.959 11.1185 204.853 10.1066 204.661 9.10579C204.476 8.10448 204.118 7.13398 203.601 6.2276C202.545 4.40855 200.867 2.92786 198.806 1.99376C197.776 1.53594 196.675 1.21637 195.538 1.04561C194.405 0.878944 193.26 0.78958 192.111 0.778318C191.59 0.770938 191.054 0.762077 190.532 0.759128C189.917 0.756103 189.291 0.7563 188.674 0.7563Z" fill="#A6A6A6"/>
<path id="Vector_3" d="M14.3197 59.9253C13.7968 59.9253 13.2866 59.9194 12.7678 59.9091C11.6932 59.8969 10.621 59.8143 9.5602 59.6625C8.57103 59.5123 7.6128 59.233 6.7171 58.8338C5.8296 58.4378 5.02014 57.9186 4.31972 57.2962C3.60916 56.6809 3.01758 55.9674 2.56843 55.184C2.11433 54.3952 1.80007 53.5499 1.63659 52.6774C1.46005 51.7398 1.36454 50.7918 1.35087 49.8414C1.33999 49.5225 1.32574 48.4603 1.32574 48.4603V13.5205C1.32574 13.5205 1.34091 12.4747 1.35095 12.1675C1.36404 11.2187 1.459 10.2721 1.63501 9.33595C1.7988 8.461 2.1133 7.61323 2.56764 6.82201C3.01513 6.03901 3.60344 5.32498 4.30971 4.70759C5.0152 4.08436 5.82725 3.56251 6.71625 3.1611C7.6099 2.76314 8.56632 2.4858 9.55349 2.33838C10.6178 2.18497 11.6937 2.10202 12.772 2.09024L14.3205 2.07178H190.68L192.247 2.09098C193.317 2.10217 194.383 2.18438 195.436 2.3369C196.434 2.48616 197.4 2.76544 198.303 3.16553C200.085 3.9745 201.535 5.25434 202.449 6.8257C202.895 7.61146 203.205 8.45232 203.366 9.31971C203.545 10.2635 203.644 11.2175 203.665 12.1741C203.67 12.6025 203.67 13.0626 203.67 13.5205C203.683 14.0877 203.683 14.6275 203.683 15.1719V46.8267C203.683 47.3762 203.683 47.9124 203.67 48.4529C203.67 48.9448 203.67 49.3954 203.664 49.8591C203.644 50.7986 203.545 51.7356 203.371 52.6625C203.21 53.5414 202.897 54.3934 202.443 55.1885C201.99 55.9635 201.403 56.6708 200.701 57.2844C200 57.9102 199.189 58.4325 198.299 58.8309C197.398 59.2332 196.433 59.5135 195.436 59.6625C194.376 59.8152 193.303 59.8976 192.229 59.9091C191.727 59.9194 191.2 59.9253 190.689 59.9253L188.828 59.9283L14.3197 59.9253Z" fill="black"/>
<path id="Vector_4" d="M49.8033 31.4549C49.8197 30.1928 50.1564 28.9552 50.782 27.8573C51.4076 26.7596 52.302 25.8372 53.3818 25.1762C52.6958 24.2006 51.7909 23.3977 50.7389 22.8313C49.6867 22.2649 48.5165 21.9506 47.3211 21.9134C44.7712 21.6468 42.2991 23.4328 40.9997 23.4328C39.6751 23.4328 37.6744 21.9398 35.5201 21.984C34.1266 22.0287 32.7686 22.4323 31.5782 23.1552C30.3878 23.8782 29.406 24.8957 28.7279 26.1089C25.7911 31.1725 27.9817 38.614 30.7949 42.7069C32.2025 44.7112 33.8475 46.9499 35.9998 46.8705C38.1062 46.7835 38.8927 45.5329 41.4352 45.5329C43.9541 45.5329 44.6921 46.8705 46.8882 46.82C49.1484 46.7835 50.5724 44.8069 51.9304 42.7838C52.9418 41.3557 53.72 39.7774 54.2363 38.1073C52.9231 37.5543 51.8026 36.6285 51.0143 35.4455C50.2261 34.2626 49.8048 32.8747 49.8033 31.4549Z" fill="white"/>
<path id="Vector_5" d="M45.6541 19.2213C46.8864 17.7481 47.4936 15.8546 47.3465 13.9429C45.4638 14.1398 43.7247 15.0359 42.4759 16.4525C41.8651 17.1446 41.3974 17.9497 41.0995 18.822C40.8014 19.6942 40.679 20.6163 40.739 21.5356C41.6808 21.5453 42.6124 21.342 43.4638 20.9411C44.3151 20.5403 45.064 19.9523 45.6541 19.2213Z" fill="white"/>
<path id="Vector_6" d="M76.4272 41.7967H69.2394L67.5133 46.8722H64.4689L71.277 28.0938H74.4401L81.2482 46.8722H78.1518L76.4272 41.7967ZM69.9838 39.4544H75.6813L72.8727 31.2172H72.794L69.9838 39.4544Z" fill="white"/>
<path id="Vector_7" d="M95.95 40.0276C95.95 44.2821 93.6633 47.0156 90.2124 47.0156C89.3384 47.0611 88.469 46.8606 87.704 46.437C86.939 46.0134 86.3092 45.3838 85.8868 44.6202H85.8215V51.4015H82.9995V33.1814H85.7311V35.4586H85.7829C86.2248 34.6987 86.8652 34.0724 87.6361 33.6461C88.4069 33.22 89.2793 33.0098 90.1607 33.0382C93.6499 33.0382 95.95 35.7849 95.95 40.0276ZM93.0493 40.0276C93.0493 37.2557 91.6108 35.4335 89.4161 35.4335C87.26 35.4335 85.8097 37.2941 85.8097 40.0276C85.8097 42.7863 87.26 44.6336 89.4161 44.6336C91.6108 44.6336 93.0493 42.8247 93.0493 40.0276Z" fill="white"/>
<path id="Vector_8" d="M111.082 40.0276C111.082 44.2821 108.795 47.0156 105.344 47.0156C104.47 47.0611 103.601 46.8606 102.836 46.437C102.071 46.0134 101.441 45.3838 101.019 44.6202H100.953V51.4015H98.1312V33.1814H100.863V35.4585H100.915C101.357 34.6987 101.997 34.0724 102.768 33.6461C103.539 33.22 104.411 33.0098 105.292 33.0382C108.782 33.0382 111.082 35.7849 111.082 40.0276ZM108.181 40.0276C108.181 37.2557 106.743 35.4334 104.548 35.4334C102.392 35.4334 100.942 37.2941 100.942 40.0276C100.942 42.7863 102.392 44.6336 104.548 44.6336C106.743 44.6336 108.181 42.8245 108.181 40.0276Z" fill="white"/>
<path id="Vector_9" d="M121.084 41.6402C121.293 43.5023 123.11 44.7251 125.592 44.7251C127.971 44.7251 129.682 43.5023 129.682 41.8232C129.682 40.3657 128.65 39.4929 126.206 38.8948L123.762 38.3085C120.3 37.4756 118.692 35.863 118.692 33.2463C118.692 30.0063 121.527 27.7808 125.554 27.7808C129.538 27.7808 132.27 30.0063 132.362 33.2463H129.513C129.343 31.3722 127.787 30.2411 125.514 30.2411C123.24 30.2411 121.685 31.3855 121.685 33.0514C121.685 34.3789 122.678 35.1601 125.109 35.7582L127.186 36.2661C131.055 37.1772 132.663 38.725 132.663 41.4717C132.663 44.9849 129.853 47.1853 125.383 47.1853C121.201 47.1853 118.378 45.0366 118.195 41.64L121.084 41.6402Z" fill="white"/>
<path id="Vector_10" d="M138.755 29.9412V33.1812H141.369V35.4067H138.755V42.9544C138.755 44.1269 139.278 44.6733 140.427 44.6733C140.738 44.6678 141.048 44.6462 141.356 44.6082V46.8204C140.839 46.9166 140.314 46.9602 139.788 46.9503C137.005 46.9503 135.919 45.9092 135.919 43.2541V35.4067H133.92V33.1812H135.919V29.9412H138.755Z" fill="white"/>
<path id="Vector_11" d="M142.883 40.0274C142.883 35.7198 145.431 33.0129 149.404 33.0129C153.39 33.0129 155.926 35.7198 155.926 40.0274C155.926 44.347 153.402 47.042 149.404 47.042C145.405 47.042 142.883 44.347 142.883 40.0274ZM153.05 40.0274C153.05 37.0724 151.69 35.3284 149.404 35.3284C147.117 35.3284 145.758 37.0857 145.758 40.0274C145.758 42.9942 147.117 44.725 149.404 44.725C151.69 44.725 153.05 42.9942 153.05 40.0274Z" fill="white"/>
<path id="Vector_12" d="M158.249 33.1812H160.94V35.5115H161.005C161.188 34.7837 161.616 34.1406 162.219 33.6901C162.82 33.2396 163.56 33.0093 164.313 33.038C164.638 33.0368 164.963 33.0721 165.28 33.1428V35.7715C164.869 35.6466 164.44 35.5891 164.012 35.6017C163.602 35.585 163.194 35.657 162.814 35.8126C162.434 35.9682 162.093 36.2037 161.813 36.5029C161.534 36.8022 161.323 37.1582 161.195 37.5463C161.068 37.9344 161.025 38.3455 161.071 38.7516V46.8722H158.249V33.1812Z" fill="white"/>
<path id="Vector_13" d="M178.294 42.851C177.914 45.3364 175.483 47.042 172.375 47.042C168.375 47.042 165.892 44.3735 165.892 40.0924C165.892 35.7981 168.389 33.0129 172.256 33.0129C176.059 33.0129 178.452 35.615 178.452 39.7661V40.7289H168.741V40.8987C168.697 41.4026 168.759 41.9102 168.926 42.3878C169.095 42.8653 169.362 43.3021 169.711 43.6689C170.06 44.0356 170.486 44.3242 170.956 44.5151C171.426 44.7061 171.931 44.7952 172.44 44.7766C173.107 44.8389 173.775 44.6851 174.347 44.3381C174.92 43.9912 175.365 43.4696 175.614 42.851H178.294ZM168.754 38.7649H175.627C175.653 38.3118 175.583 37.8585 175.425 37.4331C175.266 37.0079 175.02 36.62 174.704 36.2936C174.387 35.9675 174.007 35.7098 173.585 35.5371C173.164 35.3644 172.712 35.2803 172.256 35.29C171.796 35.2873 171.341 35.3753 170.915 35.5487C170.49 35.7222 170.103 35.9779 169.778 36.3009C169.453 36.6241 169.195 37.008 169.019 37.431C168.843 37.8538 168.753 38.3071 168.754 38.7649Z" fill="white"/>
<path id="Vector_14" d="M69.6309 13.959C70.2225 13.9167 70.8162 14.0057 71.3691 14.2196C71.922 14.4335 72.4204 14.7669 72.8283 15.1958C73.236 15.6247 73.5432 16.1384 73.7276 16.6998C73.9119 17.2612 73.9689 17.8564 73.8943 18.4423C73.8943 21.325 72.3298 22.9819 69.6309 22.9819H66.358V13.959H69.6309ZM67.7654 21.706H69.4737C69.8965 21.7311 70.3195 21.6621 70.7121 21.5039C71.1048 21.3458 71.4569 21.1023 71.7432 20.7914C72.0294 20.4806 72.2424 20.1101 72.3668 19.707C72.491 19.3037 72.5235 18.878 72.4617 18.4608C72.519 18.0452 72.4833 17.6221 72.3571 17.2218C72.2309 16.8217 72.0172 16.4543 71.7318 16.1458C71.4461 15.8374 71.0957 15.5958 70.7052 15.4382C70.3148 15.2805 69.8944 15.2108 69.4737 15.2341H67.7654V21.706Z" fill="white"/>
<path id="Vector_15" d="M75.4845 19.5744C75.4415 19.1269 75.4928 18.6754 75.6353 18.2488C75.7779 17.8223 76.0082 17.4301 76.3119 17.0974C76.6155 16.7648 76.9855 16.499 77.3984 16.3171C77.8112 16.1352 78.2576 16.0413 78.7091 16.0413C79.1605 16.0413 79.607 16.1352 80.0197 16.3171C80.4326 16.499 80.8026 16.7648 81.1062 17.0974C81.4099 17.4301 81.6403 17.8223 81.7829 18.2488C81.9253 18.6754 81.9766 19.1269 81.9336 19.5744C81.9775 20.0223 81.9267 20.4744 81.7845 20.9016C81.6424 21.3288 81.4122 21.7218 81.1085 22.0551C80.8048 22.3884 80.4344 22.6547 80.0212 22.8371C79.608 23.0193 79.161 23.1135 78.7091 23.1135C78.2572 23.1135 77.8101 23.0193 77.3969 22.8371C76.9837 22.6547 76.6134 22.3884 76.3097 22.0551C76.006 21.7218 75.7757 21.3288 75.6336 20.9016C75.4915 20.4744 75.4406 20.0223 75.4845 19.5744ZM80.5457 19.5744C80.5457 18.0983 79.8798 17.2351 78.7113 17.2351C77.5383 17.2351 76.8785 18.0983 76.8785 19.5744C76.8785 21.0622 77.5383 21.9187 78.7113 21.9187C79.8798 21.9187 80.5457 21.0563 80.5457 19.5744Z" fill="white"/>
<path id="Vector_16" d="M90.5061 22.982H89.1062L87.6929 17.9668H87.5862L86.179 22.982H84.7924L82.9076 16.1726H84.2763L85.5013 21.3685H85.6021L87.0079 16.1726H88.3025L89.7083 21.3685H89.8151L91.034 16.1726H92.3835L90.5061 22.982Z" fill="white"/>
<path id="Vector_17" d="M93.9673 16.1727H95.2662V17.2543H95.3671C95.5382 16.8659 95.8267 16.5401 96.1925 16.3227C96.5582 16.1052 96.9831 16.0068 97.4076 16.0411C97.7403 16.0163 98.0744 16.0662 98.3851 16.1873C98.6958 16.3085 98.9751 16.4976 99.2024 16.741C99.4297 16.9841 99.5992 17.2752 99.6982 17.5925C99.7972 17.9097 99.8231 18.2451 99.7744 18.5737V22.9818H98.4249V18.9113C98.4249 17.817 97.9475 17.2728 96.9493 17.2728C96.7235 17.2624 96.498 17.3006 96.2883 17.385C96.0788 17.4695 95.8899 17.5981 95.7348 17.762C95.5798 17.9259 95.4621 18.1211 95.3898 18.3347C95.3177 18.548 95.2928 18.7744 95.3166 18.9984V22.9819H93.9673V16.1727Z" fill="white"/>
<path id="Vector_18" d="M101.925 13.5144H103.274V22.9819H101.925V13.5144Z" fill="white"/>
<path id="Vector_19" d="M105.152 19.5745C105.109 19.1269 105.16 18.6755 105.303 18.2489C105.445 17.8223 105.676 17.4301 105.98 17.0975C106.283 16.7648 106.653 16.499 107.066 16.3171C107.479 16.1352 107.925 16.0413 108.377 16.0413C108.828 16.0413 109.275 16.1352 109.688 16.3171C110.101 16.499 110.471 16.7648 110.774 17.0975C111.078 17.4301 111.308 17.8223 111.451 18.2489C111.593 18.6755 111.645 19.1269 111.602 19.5745C111.646 20.0224 111.595 20.4746 111.453 20.9018C111.31 21.329 111.08 21.722 110.776 22.0553C110.473 22.3885 110.102 22.6548 109.689 22.8371C109.276 23.0194 108.829 23.1135 108.377 23.1135C107.925 23.1135 107.478 23.0194 107.065 22.8371C106.651 22.6548 106.281 22.3885 105.977 22.0553C105.674 21.722 105.443 21.329 105.301 20.9018C105.159 20.4746 105.108 20.0224 105.152 19.5745ZM110.213 19.5745C110.213 18.0985 109.547 17.2353 108.379 17.2353C107.206 17.2353 106.546 18.0985 106.546 19.5745C106.546 21.0624 107.206 21.9189 108.379 21.9189C109.547 21.9189 110.213 21.0565 110.213 19.5745Z" fill="white"/>
<path id="Vector_20" d="M113.023 21.0563C113.023 19.8307 113.939 19.124 115.566 19.0236L117.418 18.9173V18.3295C117.418 17.6103 116.941 17.2043 116.018 17.2043C115.265 17.2043 114.743 17.4797 114.593 17.961H113.287C113.425 16.7915 114.53 16.0413 116.081 16.0413C117.795 16.0413 118.762 16.8911 118.762 18.3295V22.9821H117.463V22.025H117.356C117.139 22.3683 116.835 22.6482 116.474 22.836C116.113 23.0238 115.709 23.1129 115.302 23.0941C115.015 23.1239 114.725 23.0934 114.45 23.0046C114.176 22.9159 113.923 22.7708 113.708 22.5788C113.494 22.3869 113.322 22.1522 113.204 21.89C113.086 21.6276 113.024 21.3438 113.023 21.0563ZM117.418 20.4744V19.9052L115.748 20.0115C114.807 20.0743 114.38 20.3932 114.38 20.9935C114.38 21.6064 114.914 21.963 115.648 21.963C115.863 21.9846 116.08 21.963 116.287 21.8995C116.493 21.8358 116.685 21.7313 116.85 21.5925C117.015 21.4537 117.151 21.2831 117.248 21.0911C117.346 20.8989 117.404 20.6893 117.418 20.4744Z" fill="white"/>
<path id="Vector_21" d="M120.535 19.5744C120.535 17.4227 121.646 16.0596 123.374 16.0596C123.801 16.0401 124.225 16.142 124.596 16.3535C124.968 16.5651 125.271 16.8775 125.471 17.2542H125.571V13.5144H126.921V22.9819H125.628V21.906H125.521C125.306 22.2803 124.992 22.5888 124.614 22.7982C124.235 23.0076 123.806 23.11 123.374 23.0941C121.634 23.0941 120.535 21.7311 120.535 19.5744ZM121.929 19.5744C121.929 21.0185 122.613 21.8876 123.756 21.8876C124.894 21.8876 125.597 21.006 125.597 19.5803C125.597 18.1611 124.886 17.2669 123.756 17.2669C122.62 17.2669 121.929 18.1419 121.929 19.5744Z" fill="white"/>
<path id="Vector_22" d="M132.503 19.5744C132.46 19.1269 132.511 18.6754 132.654 18.2488C132.796 17.8223 133.027 17.4301 133.33 17.0974C133.634 16.7648 134.004 16.499 134.417 16.3171C134.83 16.1352 135.276 16.0413 135.728 16.0413C136.179 16.0413 136.626 16.1352 137.038 16.3171C137.451 16.499 137.821 16.7648 138.125 17.0974C138.428 17.4301 138.659 17.8223 138.801 18.2488C138.944 18.6754 138.995 19.1269 138.952 19.5744C138.996 20.0223 138.945 20.4744 138.803 20.9016C138.661 21.3288 138.431 21.7218 138.127 22.0551C137.823 22.3884 137.453 22.6547 137.04 22.8371C136.627 23.0193 136.18 23.1135 135.728 23.1135C135.276 23.1135 134.829 23.0193 134.415 22.8371C134.002 22.6547 133.632 22.3884 133.328 22.0551C133.024 21.7218 132.794 21.3288 132.652 20.9016C132.51 20.4744 132.459 20.0223 132.503 19.5744ZM137.564 19.5744C137.564 18.0983 136.898 17.2351 135.73 17.2351C134.557 17.2351 133.897 18.0983 133.897 19.5744C133.897 21.0622 134.557 21.9187 135.73 21.9187C136.898 21.9187 137.564 21.0563 137.564 19.5744Z" fill="white"/>
<path id="Vector_23" d="M140.763 16.1727H142.062V17.2543H142.162C142.333 16.8659 142.622 16.5401 142.988 16.3227C143.353 16.1052 143.778 16.0068 144.203 16.0411C144.536 16.0163 144.87 16.0662 145.18 16.1873C145.491 16.3085 145.77 16.4976 145.998 16.741C146.225 16.9841 146.394 17.2752 146.493 17.5925C146.592 17.9097 146.618 18.2451 146.57 18.5737V22.9818H145.22V18.9113C145.22 17.817 144.743 17.2728 143.745 17.2728C143.519 17.2624 143.293 17.3006 143.084 17.385C142.874 17.4695 142.685 17.5981 142.53 17.762C142.375 17.9259 142.257 18.1211 142.185 18.3347C142.113 18.548 142.088 18.7744 142.112 18.9984V22.9819H140.763V16.1727Z" fill="white"/>
<path id="Vector_24" d="M154.196 14.4773V16.2036H155.679V17.3356H154.196V20.8369C154.196 21.5502 154.491 21.8625 155.164 21.8625C155.335 21.8621 155.507 21.8516 155.679 21.8315V22.9508C155.436 22.9941 155.19 23.0171 154.944 23.0195C153.443 23.0195 152.845 22.4938 152.845 21.181V17.3354H151.76V16.2036H152.845V14.4773H154.196Z" fill="white"/>
<path id="Vector_25" d="M157.519 13.5144H158.857V17.2669H158.965C159.144 16.8746 159.44 16.5471 159.813 16.3289C160.185 16.1107 160.618 16.0122 161.05 16.047C161.381 16.0292 161.71 16.0842 162.018 16.2082C162.325 16.3322 162.601 16.5223 162.826 16.7647C163.051 17.0073 163.219 17.2961 163.32 17.6109C163.418 17.9256 163.447 18.2584 163.403 18.5855V22.9819H162.053V18.9172C162.053 17.8294 161.545 17.2787 160.591 17.2787C160.359 17.2596 160.126 17.2914 159.908 17.3717C159.689 17.4518 159.492 17.5787 159.328 17.7431C159.164 17.9075 159.037 18.1057 158.959 18.3236C158.88 18.5415 158.849 18.7741 158.869 19.005V22.9818H157.519V13.5144Z" fill="white"/>
<path id="Vector_26" d="M171.272 21.1435C171.088 21.7658 170.691 22.3041 170.15 22.6643C169.608 23.0244 168.956 23.1835 168.31 23.1135C167.859 23.1254 167.411 23.0394 166.998 22.8617C166.583 22.684 166.212 22.4188 165.913 22.0843C165.613 21.7499 165.388 21.3543 165.256 20.9252C165.125 20.496 165.089 20.0434 165.15 19.5988C165.09 19.1529 165.127 18.6994 165.259 18.2688C165.389 17.8385 165.613 17.4411 165.912 17.1037C166.211 16.7663 166.578 16.497 166.991 16.3137C167.405 16.1304 167.851 16.0374 168.303 16.0414C170.206 16.0414 171.353 17.3358 171.353 19.4741V19.943H166.525V20.0183C166.504 20.2681 166.536 20.5197 166.618 20.7567C166.7 20.9938 166.831 21.2111 167.002 21.3947C167.174 21.5784 167.382 21.7244 167.613 21.8233C167.845 21.9222 168.094 21.9718 168.346 21.969C168.669 22.0076 168.996 21.9497 169.286 21.8027C169.574 21.6557 169.814 21.4263 169.972 21.1435H171.272ZM166.525 18.949H169.978C169.995 18.7205 169.965 18.491 169.887 18.2752C169.81 18.0594 169.688 17.8621 169.529 17.6959C169.371 17.5298 169.18 17.3986 168.967 17.3106C168.754 17.2226 168.525 17.1799 168.296 17.1851C168.062 17.1822 167.831 17.2259 167.614 17.3134C167.398 17.4011 167.201 17.5309 167.037 17.6953C166.872 17.8596 166.741 18.0553 166.653 18.2707C166.566 18.486 166.522 18.7166 166.525 18.949Z" fill="white"/>
</g>
</g>
</g>
</g>
<defs>
<clipPath id="clip0_1_530">
<rect width="205" height="62" fill="white"/>
</clipPath>
</defs>
</svg>
