<svg width="204" height="62" viewBox="0 0 204 62" fill="none" xmlns="http://www.w3.org/2000/svg">
<g id="Google-Play_Primary-Mobile-App-Buttons_S_Illustration 1" clip-path="url(#clip0_1_507)">
<g id="Clip path group">
<mask id="mask0_1_507" style="mask-type:luminance" maskUnits="userSpaceOnUse" x="0" y="0" width="204" height="62">
<g id="clip0_13117_142769">
<path id="Vector" d="M204 0.756104H0V61.2442H204V0.756104Z" fill="white"/>
</g>
</mask>
<g mask="url(#mask0_1_507)">
<g id="Group">
<path id="Vector_2" d="M196.444 0.756104H7.55556C3.38274 0.756104 0 4.14127 0 8.31708V53.6829C0 57.8587 3.38274 61.2439 7.55556 61.2439H196.444C200.617 61.2439 204 57.8587 204 53.6829V8.31708C204 4.14127 200.617 0.756104 196.444 0.756104Z" fill="black"/>
<path id="Vector_3" d="M196.444 1.96556C198.128 1.96751 199.74 2.63732 200.929 3.82805C202.12 5.01878 202.79 6.63319 202.791 8.31708V53.6829C202.79 55.3668 202.12 56.9812 200.929 58.1719C199.74 59.3626 198.128 60.0325 196.444 60.0345H7.55556C5.87286 60.0325 4.25964 59.3627 3.06982 58.172C1.88 56.9812 1.21075 55.3668 1.20889 53.6829V8.31708C1.21072 6.63316 1.87996 5.01874 3.06979 3.82801C4.25961 2.63727 5.87284 1.96748 7.55556 1.96556H196.444ZM196.444 0.756104H7.55556C5.5535 0.761968 3.63511 1.56046 2.21944 2.97714C0.803772 4.39382 0.00586024 6.31359 0 8.31708V53.6829C0.00586024 55.6864 0.803772 57.6062 2.21944 59.0228C3.63511 60.4396 5.5535 61.238 7.55556 61.2439H196.444C198.447 61.238 200.364 60.4396 201.78 59.0228C203.196 57.6062 203.994 55.6864 204 53.6829V8.31708C203.994 6.31359 203.196 4.39382 201.78 2.97714C200.364 1.56046 198.447 0.761968 196.444 0.756104Z" fill="#A6A6A6"/>
<path id="Vector_4" d="M71.6543 16.246C71.6818 16.801 71.5962 17.3556 71.4024 17.8763C71.2089 18.3971 70.9115 18.8728 70.5283 19.2748C70.0988 19.7206 69.58 20.0705 69.0061 20.3018C68.4322 20.5332 67.816 20.6406 67.1976 20.6171C66.5753 20.6227 65.9582 20.5039 65.3826 20.2674C64.8069 20.0309 64.2843 19.6815 63.8455 19.2401C63.4067 18.7986 63.0605 18.2737 62.8272 17.6963C62.594 17.1191 62.4784 16.5009 62.4873 15.8782C62.4784 15.2556 62.594 14.6374 62.8273 14.0601C63.0606 13.4828 63.4068 12.9579 63.8457 12.5164C64.2845 12.0748 64.807 11.7255 65.3826 11.4889C65.9582 11.2523 66.5753 11.1332 67.1976 11.1386C67.8374 11.1367 68.4707 11.2661 69.0585 11.5189C69.6044 11.7404 70.0903 12.0877 70.4767 12.5327L69.6798 13.3308C69.376 12.9731 68.9943 12.69 68.564 12.5034C68.1336 12.3167 67.6661 12.2315 67.1976 12.2543C66.726 12.2519 66.2588 12.3447 65.8239 12.5272C65.389 12.7098 64.9953 12.9783 64.6667 13.3166C64.3378 13.655 64.0808 14.0563 63.9106 14.4964C63.7405 14.9366 63.661 15.4066 63.6767 15.8782C63.6654 16.5847 63.8641 17.2787 64.2475 17.872C64.6308 18.4654 65.1816 18.9315 65.8301 19.2111C66.4785 19.4909 67.1952 19.5716 67.8895 19.4431C68.5839 19.3145 69.2243 18.9825 69.7299 18.4892C70.1952 17.9876 70.4648 17.3354 70.4899 16.6513H67.1976V15.5614H71.5909C71.6324 15.7873 71.6536 16.0164 71.6543 16.246Z" fill="white" stroke="white" stroke-width="0.2" stroke-miterlimit="10"/>
<path id="Vector_5" d="M78.6205 12.4565H74.4916V15.3331H78.2148V16.4231H74.4916V19.2998H78.6205V20.4147H73.3273V11.3416H78.6205V12.4565Z" fill="white" stroke="white" stroke-width="0.2" stroke-miterlimit="10"/>
<path id="Vector_6" d="M83.5332 20.4147H82.3673V12.4565H79.835V11.3416H86.0655V12.4565H83.5332V20.4147Z" fill="white" stroke="white" stroke-width="0.2" stroke-miterlimit="10"/>
<path id="Vector_7" d="M90.5722 20.4147V11.3416H91.7365V20.4147H90.5722Z" fill="white" stroke="white" stroke-width="0.2" stroke-miterlimit="10"/>
<path id="Vector_8" d="M96.9058 20.4147H95.7399V12.4565H93.2078V11.3416H99.4381V12.4565H96.9058V20.4147Z" fill="white" stroke="white" stroke-width="0.2" stroke-miterlimit="10"/>
<path id="Vector_9" d="M111.233 19.2421C110.351 20.1227 109.155 20.617 107.909 20.617C106.663 20.617 105.468 20.1227 104.585 19.2421C104.148 18.7996 103.805 18.2738 103.576 17.6959C103.347 17.1179 103.235 16.4997 103.25 15.8781C103.235 15.2564 103.347 14.6382 103.576 14.0603C103.805 13.4824 104.148 12.9566 104.585 12.5141C105.021 12.0775 105.539 11.7312 106.109 11.4952C106.679 11.2591 107.29 11.1379 107.907 11.1384C108.524 11.139 109.135 11.2613 109.705 11.4983C110.275 11.7354 110.792 12.0826 111.227 12.52C111.664 12.9613 112.008 13.486 112.238 14.0628C112.469 14.6397 112.581 15.257 112.569 15.8781C112.582 16.4997 112.471 17.1178 112.242 17.6957C112.012 18.2735 111.669 18.7993 111.233 19.2421ZM105.445 18.4824C106.099 19.1353 106.985 19.502 107.908 19.502C108.832 19.502 109.718 19.1353 110.371 18.4824C110.707 18.139 110.969 17.7313 111.142 17.2835C111.315 16.8359 111.396 16.3579 111.379 15.8781C111.396 15.3984 111.315 14.9203 111.142 14.4726C110.969 14.025 110.707 13.6172 110.371 13.2738C109.718 12.6208 108.832 12.2541 107.908 12.2541C106.985 12.2541 106.099 12.6208 105.445 13.2738C105.111 13.6175 104.849 14.0254 104.676 14.473C104.503 14.9205 104.422 15.3986 104.439 15.8781C104.422 16.3577 104.503 16.8357 104.676 17.2832C104.849 17.7308 105.111 18.1388 105.445 18.4824Z" fill="white" stroke="white" stroke-width="0.2" stroke-miterlimit="10"/>
<path id="Vector_10" d="M114.201 20.4147V11.3416H115.619L120.026 18.3997H120.076L120.026 16.6512V11.3416H121.191V20.4147H119.975L115.365 13.0146H115.315L115.365 14.7632V20.4147H114.201Z" fill="white" stroke="white" stroke-width="0.2" stroke-miterlimit="10"/>
<path id="Vector_11" d="M102.96 33.6487C101.69 33.6534 100.45 34.0348 99.3961 34.7444C98.3424 35.4541 97.5224 36.4602 97.0398 37.6359C96.557 38.8115 96.4332 40.104 96.6839 41.35C96.9348 42.5959 97.5487 43.7397 98.4486 44.6368C99.3483 45.5338 100.494 46.1438 101.74 46.39C102.986 46.6362 104.277 46.5075 105.45 46.02C106.623 45.5324 107.625 44.708 108.33 43.6508C109.035 42.5936 109.412 41.3512 109.412 40.0802C109.424 39.2301 109.265 38.3861 108.945 37.5985C108.625 36.811 108.15 36.0959 107.548 35.4958C106.946 34.8958 106.23 34.4231 105.442 34.1057C104.654 33.7883 103.81 33.633 102.96 33.6487ZM102.96 43.9782C102.178 44.034 101.397 43.8528 100.719 43.4583C100.041 43.0638 99.4979 42.4742 99.1596 41.7662C98.8212 41.0583 98.7037 40.2649 98.8223 39.4891C98.9409 38.7133 99.2903 37.9914 99.8246 37.4171C100.359 36.8428 101.054 36.4428 101.819 36.2692C102.583 36.0957 103.383 36.1565 104.112 36.4438C104.842 36.7311 105.468 37.2317 105.91 37.8803C106.351 38.5288 106.587 39.2954 106.587 40.0802C106.611 40.5759 106.536 41.0715 106.365 41.5375C106.195 42.0036 105.933 42.4308 105.594 42.794C105.257 43.1572 104.849 43.4491 104.397 43.6525C103.944 43.8559 103.456 43.9666 102.96 43.9782ZM88.8866 33.6487C87.6165 33.6534 86.3762 34.0348 85.3225 34.7443C84.2688 35.454 83.4487 36.4602 82.966 37.6357C82.4832 38.8115 82.3595 40.1038 82.6102 41.3498C82.8609 42.5959 83.475 43.7396 84.3747 44.6366C85.2746 45.5338 86.4198 46.1438 87.6659 46.39C88.912 46.6362 90.2029 46.5075 91.376 46.02C92.5489 45.5324 93.5512 44.708 94.2563 43.651C94.9616 42.5938 95.3378 41.3512 95.3378 40.0802C95.3502 39.2301 95.1917 38.3861 94.8716 37.5985C94.5516 36.811 94.0765 36.0959 93.4746 35.4958C92.8726 34.8958 92.1563 34.4231 91.3681 34.1057C90.5799 33.7884 89.736 33.633 88.8866 33.6487ZM88.8866 43.9782C88.1044 44.034 87.3235 43.8528 86.6456 43.4583C85.9677 43.0638 85.4243 42.4742 85.086 41.7662C84.7477 41.0583 84.6301 40.2649 84.7487 39.4891C84.8673 38.7133 85.2167 37.9914 85.751 37.4171C86.2855 36.8428 86.9803 36.4428 87.7449 36.2692C88.5097 36.0957 89.3089 36.1565 90.0387 36.4438C90.7684 36.7311 91.3947 37.2317 91.8363 37.8803C92.2777 38.5288 92.5139 39.2954 92.5139 40.0802C92.5376 40.5759 92.462 41.0715 92.2914 41.5375C92.121 42.0036 91.8589 42.4308 91.5211 42.794C91.183 43.1572 90.7758 43.4491 90.3233 43.6525C89.8709 43.8559 89.3824 43.9666 88.8866 43.9782ZM72.1453 35.6221V38.3506H78.6698C78.5757 39.6303 78.0524 40.8407 77.1847 41.7857C76.5308 42.4525 75.7446 42.9749 74.8766 43.319C74.0085 43.6631 73.0781 43.8212 72.1453 43.7833C70.2383 43.7574 68.418 42.9811 67.0785 41.6225C65.7391 40.2638 64.9881 38.4319 64.9881 36.5234C64.9881 34.6147 65.7391 32.7828 67.0785 31.4243C68.418 30.0655 70.2383 29.2892 72.1453 29.2635C73.9771 29.2394 75.7443 29.9399 77.063 31.2124L78.9862 29.2878C78.0864 28.3964 77.0179 27.6937 75.8431 27.221C74.6684 26.7482 73.4113 26.5149 72.1453 26.5349C70.8223 26.5155 69.5087 26.7596 68.2808 27.253C67.0528 27.7463 65.9352 28.4789 64.9929 29.4083C64.0506 30.3379 63.3021 31.4454 62.7914 32.667C62.2806 33.8884 62.0175 35.1993 62.0175 36.5234C62.0175 37.8475 62.2806 39.1582 62.7914 40.3798C63.3021 41.6012 64.0506 42.7089 64.9929 43.6383C65.9352 44.5676 67.0528 45.3003 68.2808 45.7936C69.5087 46.287 70.8223 46.5311 72.1453 46.5119C73.4379 46.5654 74.7273 46.3434 75.9276 45.8604C77.128 45.3774 78.2121 44.6445 79.1079 43.7102C80.6982 41.973 81.5458 39.682 81.4694 37.3274C81.4756 36.7555 81.4267 36.1845 81.3232 35.6221H72.1453ZM140.611 37.7414C140.225 36.5765 139.49 35.5587 138.505 34.8265C137.521 34.0942 136.335 33.683 135.109 33.6487C134.283 33.6538 133.467 33.8264 132.71 34.1562C131.953 34.4858 131.27 34.9658 130.704 35.5669C130.137 36.1682 129.698 36.878 129.414 37.6537C129.129 38.4295 129.004 39.2549 129.048 40.0802C129.029 40.9257 129.181 41.7665 129.494 42.5519C129.807 43.3375 130.276 44.0517 130.871 44.652C131.467 45.2524 132.177 45.7264 132.959 46.0461C133.742 46.3656 134.581 46.524 135.426 46.5119C136.484 46.5176 137.528 46.2602 138.463 45.7627C139.398 45.2654 140.194 44.5433 140.781 43.6615L138.591 42.1999C138.262 42.7453 137.798 43.1961 137.243 43.5078C136.688 43.8196 136.062 43.9817 135.426 43.9782C134.771 44.0031 134.124 43.8308 133.568 43.4833C133.013 43.1358 132.574 42.6292 132.31 42.0293L140.903 38.4724L140.611 37.7414ZM131.847 39.8854C131.817 39.4173 131.88 38.9479 132.033 38.5045C132.187 38.0611 132.427 37.6528 132.739 37.3035C133.052 36.9542 133.432 36.6708 133.855 36.4698C134.279 36.269 134.738 36.1547 135.207 36.1337C135.694 36.1015 136.18 36.2138 136.605 36.4564C137.029 36.6989 137.372 37.0613 137.592 37.498L131.847 39.8854ZM124.86 46.122H127.684V27.2172H124.86V46.122ZM120.235 35.086H120.137C119.708 34.6192 119.184 34.2495 118.6 34.0016C118.017 33.7538 117.387 33.6334 116.753 33.6487C115.096 33.7192 113.53 34.4276 112.382 35.626C111.235 36.8246 110.594 38.4203 110.594 40.0802C110.594 41.7401 111.235 43.336 112.382 44.5344C113.53 45.7328 115.096 46.4413 116.753 46.5119C117.39 46.5288 118.022 46.4068 118.606 46.1544C119.191 45.9019 119.713 45.5252 120.137 45.0502H120.235V45.976C120.235 48.4366 118.92 49.7521 116.802 49.7521C116.096 49.7351 115.411 49.5083 114.834 49.1005C114.258 48.6926 113.816 48.1222 113.564 47.462L111.105 48.4853C111.569 49.6143 112.359 50.5792 113.373 51.2564C114.388 51.9334 115.582 52.2919 116.802 52.2857C120.113 52.2857 122.913 50.3368 122.913 45.5861V34.0384H120.235V35.086ZM116.997 43.9782C116.021 43.8953 115.111 43.4488 114.449 42.7269C113.786 42.0051 113.418 41.0606 113.418 40.0802C113.418 39.1 113.786 38.1553 114.449 37.4336C115.111 36.7116 116.021 36.2651 116.997 36.1824C117.482 36.2061 117.958 36.3274 118.396 36.5391C118.834 36.7508 119.225 37.0484 119.545 37.4145C119.865 37.7805 120.109 38.2074 120.26 38.6695C120.412 39.1316 120.47 39.6196 120.429 40.1046C120.467 40.5863 120.408 41.0708 120.254 41.5292C120.101 41.9874 119.857 42.4101 119.536 42.7716C119.216 43.1333 118.826 43.4265 118.389 43.6339C117.953 43.8412 117.479 43.9582 116.997 43.9782ZM153.839 27.2175H147.083V46.122H149.902V38.9597H153.839C154.637 39.0034 155.434 38.8839 156.184 38.6087C156.935 38.3333 157.621 37.9079 158.2 37.3586C158.78 36.809 159.242 36.147 159.558 35.4128C159.874 34.6786 160.037 33.8878 160.037 33.0886C160.037 32.2892 159.874 31.4984 159.558 30.7642C159.242 30.03 158.78 29.368 158.2 28.8184C157.621 28.2691 156.935 27.8437 156.184 27.5683C155.434 27.2931 154.637 27.1736 153.839 27.2175ZM153.913 36.3288H149.902V29.8485H153.913C154.343 29.8396 154.771 29.9167 155.171 30.0755C155.572 30.2345 155.938 30.4716 156.246 30.7734C156.553 31.0751 156.797 31.4353 156.965 31.8328C157.131 32.2304 157.218 32.6573 157.218 33.0886C157.218 33.5199 157.131 33.9467 156.965 34.3443C156.797 34.7419 156.553 35.1021 156.246 35.4037C155.938 35.7056 155.572 35.9428 155.171 36.1016C154.771 36.2604 154.343 36.3377 153.913 36.3288ZM171.337 33.6139C170.308 33.5537 169.284 33.7955 168.391 34.3097C167.498 34.8238 166.772 35.5878 166.307 36.5081L168.811 37.5539C169.059 37.0971 169.435 36.7228 169.891 36.4765C170.349 36.2303 170.869 36.1229 171.386 36.1676C172.102 36.0977 172.815 36.3144 173.371 36.7703C173.927 37.2262 174.279 37.884 174.352 38.5996V38.7942C173.445 38.3128 172.436 38.0622 171.41 38.0646C168.713 38.0646 165.967 39.5482 165.967 42.3208C165.993 42.9051 166.136 43.4783 166.388 44.006C166.639 44.5339 166.994 45.0059 167.433 45.3938C167.869 45.7816 168.38 46.0776 168.935 46.2642C169.489 46.4506 170.074 46.524 170.657 46.4797C171.368 46.5214 172.075 46.372 172.708 46.0469C173.341 45.7219 173.875 45.233 174.254 44.6313H174.352V46.0906H177.074V38.8429C177.074 35.4866 174.57 33.6139 171.337 33.6139ZM170.997 43.9746C170.074 43.9746 168.785 43.5126 168.785 42.3694C168.785 40.9103 170.39 40.3507 171.776 40.3507C172.675 40.3267 173.565 40.5451 174.352 40.9831C174.248 41.8031 173.852 42.5578 173.234 43.1076C172.617 43.6576 171.824 43.9655 170.997 43.9746ZM186.989 34.0273L183.757 42.2234H183.659L180.306 34.0273H177.268L182.299 45.4825L179.431 51.8546H182.371L190.125 34.0273H186.989ZM161.592 46.122H164.41V27.2175H161.592V46.122Z" fill="white"/>
<path id="Vector_12" d="M15.7688 12.155C15.2733 12.7478 15.023 13.5079 15.0694 14.2794V47.7232C15.0229 48.4948 15.2731 49.2549 15.7688 49.8477L15.8806 49.9568L34.6017 31.2223V30.7803L15.8806 12.0452L15.7688 12.155Z" fill="url(#paint0_linear_1_507)"/>
<path id="Vector_13" d="M40.842 37.4701L34.6021 31.2227V30.7806L40.8435 24.5347L40.9842 24.615L48.3778 28.819C50.4897 30.0197 50.4897 31.9843 48.3778 33.1858L40.9842 37.3898L40.842 37.4701Z" fill="url(#paint1_linear_1_507)"/>
<path id="Vector_14" d="M40.9844 37.3888L34.6022 31.0015L15.7692 49.8478C16.1996 50.2275 16.7492 50.4448 17.3226 50.4618C17.8961 50.4787 18.4575 50.2944 18.9095 49.9406L40.9844 37.3888Z" fill="url(#paint2_linear_1_507)"/>
<path id="Vector_15" d="M40.9844 24.6141L18.9095 12.0622C18.4575 11.7085 17.8961 11.5241 17.3226 11.5411C16.7492 11.5581 16.1996 11.7753 15.7692 12.1551L34.6022 31.0016L40.9844 24.6141Z" fill="url(#paint3_linear_1_507)"/>
<path id="Vector_16" opacity="0.2" d="M40.8437 37.248L18.9095 49.7196C18.475 50.0507 17.9446 50.2313 17.3984 50.2342C16.8522 50.2372 16.32 50.0622 15.8818 49.7358L15.7692 49.8484L15.881 49.9574C16.3191 50.2841 16.8522 50.4584 17.3984 50.4554C17.9446 50.4525 18.475 50.2718 18.9095 49.9405L40.9844 37.3887L40.8437 37.248Z" fill="black"/>
<path id="Vector_17" opacity="0.12" d="M15.7688 49.6279C15.2733 49.035 15.023 48.2749 15.0694 47.5034V47.7243C15.023 48.4959 15.2733 49.2559 15.7688 49.8488L15.8813 49.7362L15.7688 49.6279Z" fill="black"/>
<path id="Vector_18" opacity="0.12" d="M48.3785 32.964L40.8443 37.2483L40.985 37.389L48.3785 33.1849C48.8134 32.996 49.1899 32.6939 49.4684 32.3099C49.747 31.9262 49.9178 31.4745 49.9626 31.0022C49.8691 31.4298 49.6773 31.8298 49.4023 32.1704C49.1273 32.5109 48.7769 32.7827 48.3785 32.964Z" fill="black"/>
<path id="Vector_19" opacity="0.25" d="M18.9095 12.2842L48.3779 29.0392C48.7763 29.2205 49.127 29.4923 49.402 29.833C49.6769 30.1737 49.8687 30.574 49.962 31.0018C49.9173 30.5293 49.7469 30.0775 49.4682 29.6934C49.1896 29.3093 48.813 29.0072 48.3779 28.8183L18.9095 12.0632C16.7975 10.8624 15.0698 11.8598 15.0698 14.2806V14.5015C15.0698 12.0809 16.7975 11.0835 18.9095 12.2842Z" fill="white"/>
</g>
</g>
</g>
</g>
<defs>
<linearGradient id="paint0_linear_1_507" x1="32.9415" y1="13.9268" x2="7.56324" y2="39.287" gradientUnits="userSpaceOnUse">
<stop stop-color="#00A0FF"/>
<stop offset="0.00657" stop-color="#00A1FF"/>
<stop offset="0.2601" stop-color="#00BEFF"/>
<stop offset="0.5122" stop-color="#00D2FF"/>
<stop offset="0.7604" stop-color="#00DFFF"/>
<stop offset="1" stop-color="#00E3FF"/>
</linearGradient>
<linearGradient id="paint1_linear_1_507" x1="51.1276" y1="31.0025" x2="14.5634" y2="31.0025" gradientUnits="userSpaceOnUse">
<stop stop-color="#FFE000"/>
<stop offset="0.4087" stop-color="#FFBD00"/>
<stop offset="0.7754" stop-color="#FFA500"/>
<stop offset="1" stop-color="#FF9C00"/>
</linearGradient>
<linearGradient id="paint2_linear_1_507" x1="37.5165" y1="34.4721" x2="3.10158" y2="68.8624" gradientUnits="userSpaceOnUse">
<stop stop-color="#FF3A44"/>
<stop offset="1" stop-color="#C31162"/>
</linearGradient>
<linearGradient id="paint3_linear_1_507" x1="11.0273" y1="1.02255" x2="26.395" y2="16.3793" gradientUnits="userSpaceOnUse">
<stop stop-color="#32A071"/>
<stop offset="0.0685" stop-color="#2DA771"/>
<stop offset="0.4762" stop-color="#15CF74"/>
<stop offset="0.8009" stop-color="#06E775"/>
<stop offset="1" stop-color="#00F076"/>
</linearGradient>
<clipPath id="clip0_1_507">
<rect width="204" height="62" fill="white"/>
</clipPath>
</defs>
</svg>
